<svg width="29" height="30" viewBox="0 0 29 30" fill="none" xmlns="http://www.w3.org/2000/svg">
<path d="M17.5 3.5H17.7C19.4913 3.5 20.387 3.5 20.9435 4.0565C21.5 4.61299 21.5 5.50866 21.5 7.3V7.5M17.5 20.5H17.7C19.4913 20.5 20.387 20.5 20.9435 19.9435C21.5 19.387 21.5 18.4913 21.5 16.7V16.5M6.5 3.5H6.3C4.50866 3.5 3.61299 3.5 3.0565 4.0565C2.5 4.61299 2.5 5.50866 2.5 7.3V7.5M6.5 20.5H6.3C4.50866 20.5 3.61299 20.5 3.0565 19.9435C2.5 19.387 2.5 18.4913 2.5 16.7V16.5" stroke="#7E869E" stroke-opacity="0.25" stroke-linecap="round"/>
<path d="M7.93303 21.6111C8.17944 20.3003 8.9668 19.0877 10.1816 18.2055C11.3977 17.3223 12.9535 16.8364 14.5672 16.8503C16.1809 16.8642 17.7244 17.3767 18.9189 18.28C20.1119 19.1821 20.8704 20.4068 21.0863 21.7208" stroke="#222222" stroke-width="1.2" stroke-linecap="round"/>
<path d="M17.525 11.25C17.525 13.009 16.1517 14.4 14.5 14.4C12.8483 14.4 11.475 13.009 11.475 11.25C11.475 9.49097 12.8483 8.1 14.5 8.1C16.1517 8.1 17.525 9.49097 17.525 11.25Z" stroke="#222222" stroke-width="1.2" stroke-linecap="round"/>
</svg>
