<svg width="33" height="35" viewBox="0 0 33 35" fill="none" xmlns="http://www.w3.org/2000/svg">
<path d="M20.125 11.6665C20.125 13.8347 18.4747 15.5415 16.5 15.5415C14.5253 15.5415 12.875 13.8347 12.875 11.6665C12.875 9.49828 14.5253 7.7915 16.5 7.7915C18.4747 7.7915 20.125 9.49828 20.125 11.6665Z" stroke="white" stroke-linecap="round"/>
<path d="M18.7747 9.35348C19.0689 8.81299 19.505 8.38194 20.0239 8.11055C20.5423 7.83938 21.1225 7.73836 21.692 7.81789C22.2618 7.89745 22.8003 8.15485 23.2385 8.56237C23.6769 8.9702 23.995 9.51023 24.1481 10.1162C24.3012 10.7223 24.2814 11.3632 24.0914 11.9568C23.9014 12.5503 23.5512 13.0662 23.0895 13.442C22.6282 13.8174 22.0758 14.0367 21.5026 14.0766C20.9296 14.1164 20.3564 13.9754 19.8549 13.6683" stroke="white"/>
<path d="M14.2253 9.35348C13.9311 8.81299 13.495 8.38194 12.9761 8.11055C12.4577 7.83938 11.8775 7.73836 11.308 7.81789C10.7382 7.89745 10.1997 8.15485 9.76153 8.56237C9.32306 8.9702 9.00499 9.51023 8.8519 10.1162C8.69878 10.7223 8.71865 11.3632 8.90863 11.9568C9.09857 12.5503 9.44876 13.0662 9.91049 13.442C10.3718 13.8174 10.9242 14.0367 11.4974 14.0766C12.0704 14.1164 12.6436 13.9754 13.1451 13.6683" stroke="white"/>
<path d="M16.5 18.229C22.4757 18.229 23.7296 23.6924 23.9926 25.985C24.0556 26.5337 23.6148 26.979 23.0625 26.979H9.9375C9.38521 26.979 8.9444 26.5337 9.00736 25.985C9.27044 23.6924 10.5243 18.229 16.5 18.229Z" stroke="white" stroke-linecap="round"/>
<path d="M26.6414 22.9798L26.1511 23.078V23.078L26.6414 22.9798ZM17.9949 18.3546L17.6159 18.0284L17.0426 18.6945L17.9081 18.847L17.9949 18.3546ZM23.6244 24.0627L23.142 24.1942L23.2425 24.5627H23.6244V24.0627ZM21.3126 17.271C22.9045 17.271 23.9979 18.1706 24.7687 19.3822C25.546 20.604 25.9525 22.0858 26.1511 23.078L27.1317 22.8816C26.9237 21.8429 26.4871 20.2203 25.6124 18.8454C24.7312 17.4604 23.3636 16.271 21.3126 16.271V17.271ZM18.3738 18.6808C19.0948 17.8433 20.0395 17.271 21.3126 17.271V16.271C19.6892 16.271 18.4846 17.0194 17.6159 18.0284L18.3738 18.6808ZM17.9081 18.847C21.1634 19.4208 22.5473 22.0141 23.142 24.1942L24.1068 23.9311C23.4734 21.609 21.9081 18.5366 18.0817 17.8622L17.9081 18.847ZM25.7139 23.5627H23.6244V24.5627H25.7139V23.5627ZM26.1511 23.078C26.1989 23.3165 26.019 23.5627 25.7139 23.5627V24.5627C26.5875 24.5627 27.3153 23.7989 27.1317 22.8816L26.1511 23.078Z" fill="white"/>
<path d="M15.0052 18.3546L15.092 18.847L15.9576 18.6945L15.3842 18.0284L15.0052 18.3546ZM6.35869 22.9798L6.84896 23.078L6.35869 22.9798ZM9.37569 24.0627V24.5627H9.75757L9.85807 24.1942L9.37569 24.0627ZM11.6875 17.271C12.9606 17.271 13.9053 17.8433 14.6263 18.6808L15.3842 18.0284C14.5156 17.0194 13.3109 16.271 11.6875 16.271V17.271ZM6.84896 23.078C7.04764 22.0858 7.45409 20.604 8.23141 19.3822C9.00225 18.1706 10.0956 17.271 11.6875 17.271V16.271C9.63657 16.271 8.26887 17.4604 7.38769 18.8454C6.51297 20.2203 6.07643 21.8429 5.86843 22.8816L6.84896 23.078ZM7.28622 23.5627C6.98113 23.5627 6.8012 23.3165 6.84896 23.078L5.86843 22.8816C5.68474 23.7989 6.41257 24.5627 7.28622 24.5627V23.5627ZM9.37569 23.5627H7.28622V24.5627H9.37569V23.5627ZM9.85807 24.1942C10.4528 22.0141 11.8367 19.4208 15.092 18.847L14.9184 17.8622C11.092 18.5366 9.52674 21.609 8.89332 23.9311L9.85807 24.1942Z" fill="white"/>
</svg>
