<svg width="50" height="50" viewBox="0 0 50 50" fill="none" xmlns="http://www.w3.org/2000/svg">
<g clip-path="url(#clip0_188_138)">
<path d="M18.075 18.5875V29.725C18.075 30.8426 18.9824 31.75 20.1 31.75H28.2C29.3176 31.75 30.225 30.8426 30.225 29.725V18.5875M18.075 18.5875H17.0625M18.075 18.5875H20.1M30.225 18.5875H31.2375M30.225 18.5875H28.2M22.125 22.6375V27.7M26.175 22.6375V27.7M20.1 18.5875V16.5625C20.1 15.4449 21.0074 14.5375 22.125 14.5375H26.175C27.2926 14.5375 28.2 15.4449 28.2 16.5625V18.5875M20.1 18.5875H28.2" stroke="black" stroke-width="2.25" stroke-linecap="round" stroke-linejoin="round"/>
</g>
<defs>
<clipPath id="clip0_188_138">
<rect width="27" height="27" fill="white" transform="matrix(0.9 0 0 0.9 11.5 11.5)"/>
</clipPath>
</defs>
</svg>
